<?xml version="1.0" standalone="no"?>
<!DOCTYPE svg PUBLIC "-//W3C//DTD SVG 20010904//EN"
 "http://www.w3.org/TR/2001/REC-SVG-20010904/DTD/svg10.dtd">
<svg version="1.0" xmlns="http://www.w3.org/2000/svg"
 width="645.000000pt" height="387.000000pt" viewBox="0 0 645.000000 387.000000"
 preserveAspectRatio="xMidYMid meet">

<g transform="translate(0.000000,387.000000) scale(0.100000,-0.100000)"
fill="#000000" stroke="none">
<path d="M3735 2399 c-22 -45 -41 -85 -43 -90 -2 -5 41 -9 95 -9 l99 0 42 85
c23 47 42 87 42 90 0 3 -44 5 -98 5 l-97 0 -40 -81z"/>
<path d="M3172 1475 l42 -85 99 0 c54 0 97 3 95 8 -2 4 -21 42 -43 84 l-40 78
-97 0 -98 0 42 -85z"/>
</g>
</svg>
